<?xml version="1.0" encoding="utf-8" ?>
<svg baseProfile="tiny" height="100%" version="1.2" width="100%" xmlns="http://www.w3.org/2000/svg" xmlns:ev="http://www.w3.org/2001/xml-events" xmlns:xlink="http://www.w3.org/1999/xlink"><defs /><polygon fill="navy" points="645,190 644,191 637,191 636,192 631,192 630,193 625,193 624,194 621,194 620,195 617,195 616,196 613,196 612,197 610,197 609,198 606,198 605,199 603,199 602,200 601,200 600,201 598,201 597,202 595,202 594,203 593,203 592,204 591,204 590,205 589,205 588,206 587,206 586,207 585,207 584,208 583,208 582,209 581,209 580,210 579,210 578,211 577,211 575,213 574,213 573,214 572,214 570,216 569,216 566,219 565,219 562,222 561,222 555,228 554,228 548,234 548,235 542,241 542,242 539,245 539,246 537,248 537,249 536,250 536,251 534,253 534,254 533,255 533,256 532,257 532,258 531,259 531,260 530,261 530,262 529,263 529,264 528,265 528,266 527,267 527,269 526,270 526,271 525,272 525,274 524,275 524,277 523,278 523,280 522,281 522,283 521,284 521,287 520,288 520,291 519,292 519,295 518,296 518,299 517,300 517,303 516,304 516,307 515,308 515,312 514,313 514,317 513,318 513,323 512,324 512,325 511,326 510,325 510,321 509,320 509,318 508,317 508,315 507,314 507,312 506,311 506,309 505,308 505,306 504,305 504,303 503,302 503,301 502,300 502,298 501,297 501,296 500,295 500,293 499,292 499,291 498,290 498,288 497,287 497,286 496,285 496,284 495,283 495,282 494,281 494,280 493,279 493,278 491,276 491,275 490,274 490,273 489,272 489,271 487,269 487,268 486,267 486,266 484,264 484,263 482,261 482,260 479,257 479,256 476,253 476,252 470,246 470,245 465,240 464,240 458,234 457,234 454,231 453,231 451,229 450,229 449,228 448,228 447,227 446,227 445,226 444,226 443,225 442,225 441,224 439,224 438,223 435,223 434,222 425,222 424,223 422,223 420,225 419,225 417,227 417,228 415,230 415,231 414,232 414,233 413,234 413,238 412,239 412,241 413,242 413,245 414,246 414,247 415,248 415,249 419,253 420,253 422,255 423,255 424,256 425,256 426,257 427,257 429,259 430,259 432,261 433,261 435,263 436,263 441,268 442,268 449,275 449,276 454,281 454,282 457,285 457,286 459,288 459,289 461,291 461,292 462,293 462,294 464,296 464,297 465,298 465,299 467,301 467,302 468,303 468,304 469,305 469,306 470,307 470,308 471,309 471,310 472,311 472,312 473,313 473,314 474,315 474,316 475,317 475,318 476,319 476,320 477,321 477,322 478,323 478,324 479,325 479,327 480,328 480,329 481,330 481,331 482,332 482,334 483,335 483,337 484,338 484,340 485,341 485,343 486,344 486,346 487,347 487,350 488,351 488,353 489,354 489,357 490,358 490,362 491,363 491,367 492,368 492,373 493,374 493,376 492,377 489,377 488,376 486,376 485,375 483,375 482,374 480,374 479,373 477,373 476,372 474,372 473,371 471,371 470,370 468,370 467,369 465,369 464,368 462,368 461,367 459,367 458,366 456,366 455,365 453,365 452,364 450,364 449,363 447,363 446,362 444,362 443,361 440,361 439,360 437,360 436,359 434,359 433,358 430,358 429,357 425,357 424,356 420,356 419,355 410,355 409,354 388,354 387,355 377,355 376,356 370,356 369,357 365,357 364,358 361,358 360,359 357,359 356,360 354,360 353,361 351,361 350,362 348,362 347,363 345,363 344,364 343,364 342,365 340,365 339,366 338,366 337,367 336,367 335,368 334,368 333,369 332,369 331,370 330,370 329,371 328,371 327,372 326,372 325,373 324,373 322,375 321,375 319,377 318,377 316,379 315,379 313,381 312,381 308,385 307,385 301,391 300,391 292,399 292,400 286,406 286,407 282,411 282,412 279,415 279,416 277,418 277,419 275,421 275,422 274,423 274,424 272,426 272,427 271,428 271,429 269,431 269,432 268,433 268,434 267,435 267,436 266,437 266,438 265,439 265,440 264,441 264,442 263,443 263,444 262,445 262,447 261,448 261,449 260,450 260,452 259,453 259,454 258,455 258,457 257,458 257,460 256,461 256,463 255,464 255,466 254,467 254,469 253,470 253,473 252,474 252,477 251,478 251,481 250,482 250,486 249,487 249,492 248,493 248,499 247,500 247,508 246,509 246,527 245,528 245,534 246,535 246,555 247,556 247,565 248,566 248,574 249,575 249,580 250,581 250,586 251,587 251,591 252,592 252,597 253,598 253,601 254,602 254,606 255,607 255,610 256,611 256,614 257,615 257,618 258,619 258,621 259,622 259,625 260,626 260,628 261,629 261,631 262,632 262,634 263,635 263,638 264,639 264,640 265,641 265,643 266,644 266,646 267,647 267,649 268,650 268,652 269,653 269,654 270,655 270,657 271,658 271,659 272,660 272,662 273,663 273,664 274,665 274,667 275,668 275,669 276,670 276,671 277,672 277,674 278,675 278,676 279,677 279,678 280,679 280,680 281,681 281,682 282,683 282,685 283,686 283,687 284,688 284,689 285,690 285,691 286,692 286,693 287,694 287,695 288,696 288,697 289,698 289,699 290,700 290,701 292,703 292,704 293,705 293,706 294,707 294,708 295,709 295,710 296,711 296,712 298,714 298,715 299,716 299,717 300,718 300,719 302,721 302,722 303,723 303,724 305,726 305,727 306,728 306,729 308,731 308,732 310,734 310,735 311,736 311,737 313,739 313,740 315,742 315,743 317,745 317,746 319,748 319,749 322,752 322,753 324,755 324,756 327,759 327,760 331,764 331,765 334,768 334,769 339,774 339,775 351,787 351,788 352,788 361,797 362,797 366,801 367,801 370,804 371,804 374,807 375,807 377,809 378,809 380,811 381,811 382,812 383,812 384,813 385,813 387,815 388,815 389,816 390,816 391,817 393,817 394,818 395,818 396,819 398,819 399,820 400,820 401,821 403,821 404,822 407,822 408,823 411,823 412,824 417,824 418,825 444,825 445,824 450,824 451,823 454,823 455,822 458,822 459,821 461,821 462,820 464,820 465,819 467,819 468,818 470,818 471,817 473,817 474,816 476,816 477,815 479,815 480,814 482,814 483,813 486,813 487,812 489,812 490,811 493,811 494,810 499,810 500,809 520,809 521,810 526,810 527,811 530,811 531,812 533,812 534,813 536,813 537,814 540,814 541,815 543,815 544,816 546,816 547,817 549,817 550,818 552,818 553,819 555,819 556,820 558,820 559,821 561,821 562,822 564,822 565,823 568,823 569,824 573,824 574,825 602,825 603,824 608,824 609,823 612,823 613,822 616,822 617,821 619,821 620,820 622,820 623,819 624,819 625,818 627,818 628,817 629,817 630,816 631,816 632,815 633,815 634,814 635,814 637,812 638,812 639,811 640,811 642,809 643,809 645,807 646,807 648,805 649,805 653,801 654,801 660,795 661,795 676,780 676,779 682,773 682,772 687,767 687,766 691,762 691,761 694,758 694,757 697,754 697,753 699,751 699,750 702,747 702,746 704,744 704,743 706,741 706,740 708,738 708,737 710,735 710,734 711,733 711,732 713,730 713,729 715,727 715,726 716,725 716,724 718,722 718,721 719,720 719,719 720,718 720,717 722,715 722,714 723,713 723,712 724,711 724,710 725,709 725,708 727,706 727,705 728,704 728,703 729,702 729,701 730,700 730,699 731,698 731,697 732,696 732,695 733,694 733,693 734,692 734,691 735,690 735,689 736,688 736,687 737,686 737,685 738,684 738,683 739,682 739,680 740,679 740,678 741,677 741,676 742,675 742,674 743,673 743,671 744,670 744,669 745,668 745,667 746,666 746,664 747,663 747,662 748,661 748,659 749,658 749,657 750,656 750,654 751,653 751,651 752,650 752,649 753,648 753,646 754,645 754,643 755,642 755,640 756,639 756,637 757,636 757,634 758,633 758,631 759,630 759,627 760,626 760,624 761,623 761,620 762,619 762,617 763,616 763,612 764,611 764,608 765,607 765,604 766,603 766,599 767,598 767,594 768,593 768,588 769,587 769,582 770,581 770,575 771,574 771,566 772,565 772,556 773,555 773,536 774,535 774,524 773,523 773,507 772,506 772,499 771,498 771,492 770,491 770,487 769,486 769,482 768,481 768,478 767,477 767,474 766,473 766,470 765,469 765,467 764,466 764,464 763,463 763,461 762,460 762,458 761,457 761,455 760,454 760,452 759,451 759,450 758,449 758,447 757,446 757,445 756,444 756,443 755,442 755,441 754,440 754,439 753,438 753,437 752,436 752,435 751,434 751,433 750,432 750,431 749,430 749,429 747,427 747,426 746,425 746,424 744,422 744,421 743,420 743,419 741,417 741,416 738,413 738,412 735,409 735,408 730,403 730,402 716,388 715,388 710,383 709,383 706,380 705,380 703,378 702,378 700,376 699,376 697,374 696,374 695,373 694,373 693,372 692,372 691,371 690,371 689,370 688,370 687,369 686,369 685,368 684,368 683,367 682,367 681,366 680,366 679,365 677,365 676,364 675,364 674,363 672,363 671,362 669,362 668,361 666,361 665,360 662,360 661,359 659,359 658,358 654,358 653,357 649,357 648,356 643,356 642,355 635,355 634,354 611,354 610,355 603,355 602,356 597,356 596,357 592,357 591,358 588,358 587,359 584,359 583,360 580,360 579,361 577,361 576,362 574,362 573,363 571,363 570,364 568,364 567,365 565,365 564,366 562,366 561,367 559,367 558,368 556,368 555,369 553,369 552,370 550,370 549,371 547,371 546,372 544,372 543,373 541,373 540,374 538,374 537,375 534,375 533,376 530,376 529,377 526,377 525,378 520,378 519,379 518,378 518,364 517,363 517,355 516,354 516,349 515,348 515,343 514,342 515,341 549,341 550,340 560,340 561,339 567,339 568,338 574,338 575,337 579,337 580,336 583,336 584,335 587,335 588,334 591,334 592,333 594,333 595,332 597,332 598,331 600,331 601,330 602,330 603,329 605,329 606,328 607,328 608,327 609,327 610,326 611,326 612,325 613,325 614,324 615,324 616,323 617,323 618,322 619,322 621,320 622,320 623,319 624,319 625,318 626,318 628,316 629,316 631,314 632,314 634,312 635,312 639,308 640,308 661,287 661,286 666,281 666,280 668,278 668,277 670,275 670,274 672,272 672,271 673,270 673,269 675,267 675,266 676,265 676,264 677,263 677,262 678,261 678,260 679,259 679,258 680,257 680,256 681,255 681,254 682,253 682,251 683,250 683,249 684,248 684,246 685,245 685,244 686,243 686,241 687,240 687,238 688,237 688,236 689,235 689,233 690,232 690,229 691,228 691,226 692,225 692,223 693,222 693,219 694,218 694,215 695,214 695,211 696,210 696,206 697,205 697,201 698,200 698,196 699,195 699,192 698,191 690,191 689,190" /></svg>